<svg width="64" height="64" fill="none" xmlns="http://www.w3.org/2000/svg"><path d="M0 31.995C0 14.325 14.325 0 31.995 0S63.99 14.325 63.99 31.995 49.666 63.99 31.995 63.99C14.325 63.99 0 49.666 0 31.995z" fill="url(#a)"/><path d="M18.666 27.997a3.999 3.999 0 010 7.997v2.666a2.666 2.666 0 002.666 2.666h21.326a2.666 2.666 0 002.666-2.666v-2.666a3.998 3.998 0 010-7.997V25.33a2.666 2.666 0 00-2.666-2.666H21.332a2.666 2.666 0 00-2.666 2.666v2.666zM33.328 22.665v2.667M33.328 38.66v2.666M33.328 30.662v2.667" stroke="#fff" stroke-width="2.666" stroke-linecap="round" stroke-linejoin="round"/><defs><linearGradient id="a" x1="0" y1="0" x2="63.99" y2="63.99" gradientUnits="userSpaceOnUse"><stop stop-color="#155DFC"/><stop offset="1" stop-color="#51A2FF"/></linearGradient></defs></svg>