<svg width="32" height="32" fill="none" xmlns="http://www.w3.org/2000/svg"><path d="M13.33 29.324v-8.758M15.995 14.662h.013M15.995 9.33h.013M18.66 20.567v8.757M19.994 21.326a6.664 6.664 0 00-7.998 0M21.326 14.662h.014M21.326 9.33h.014M10.663 14.662h.013M10.663 9.33h.013" stroke="#C27AFF" stroke-width="2.666" stroke-linecap="round" stroke-linejoin="round"/><path d="M23.992 2.666H7.997a2.666 2.666 0 00-2.665 2.666v21.326a2.666 2.666 0 002.665 2.666h15.995a2.666 2.666 0 002.666-2.666V5.332a2.666 2.666 0 00-2.666-2.666z" stroke="#C27AFF" stroke-width="2.666" stroke-linecap="round" stroke-linejoin="round"/></svg>