<svg width="64" height="64" fill="none" xmlns="http://www.w3.org/2000/svg"><path d="M0 31.995C0 14.325 14.325 0 31.995 0S63.99 14.325 63.99 31.995 49.666 63.99 31.995 63.99C14.325 63.99 0 49.666 0 31.995z" fill="url(#a)"/><path d="M30.685 19.751a1.333 1.333 0 012.62 0l1.401 7.409a2.666 2.666 0 002.125 2.124l7.408 1.401a1.333 1.333 0 010 2.62l-7.408 1.401a2.666 2.666 0 00-2.125 2.125l-1.4 7.408a1.332 1.332 0 01-2.621 0l-1.4-7.408a2.666 2.666 0 00-2.125-2.125l-7.409-1.4a1.333 1.333 0 010-2.62l7.409-1.402a2.666 2.666 0 002.124-2.124l1.401-7.409zM42.658 18.666v5.332M45.324 21.332h-5.331M21.332 45.324a2.666 2.666 0 100-5.331 2.666 2.666 0 000 5.331z" stroke="#fff" stroke-width="2.666" stroke-linecap="round" stroke-linejoin="round"/><defs><linearGradient id="a" x1="0" y1="0" x2="63.99" y2="63.99" gradientUnits="userSpaceOnUse"><stop stop-color="#E60076"/><stop offset="1" stop-color="#FB64B6"/></linearGradient></defs></svg>