<svg width="40" height="40" fill="none" xmlns="http://www.w3.org/2000/svg"><path d="M18.357 4.689a1.666 1.666 0 013.276 0l1.751 9.26a3.332 3.332 0 002.656 2.657l9.261 1.75a1.666 1.666 0 010 3.277l-9.26 1.751a3.333 3.333 0 00-2.657 2.656l-1.751 9.26a1.666 1.666 0 01-3.276 0l-1.751-9.26a3.332 3.332 0 00-2.656-2.656l-9.261-1.751a1.666 1.666 0 010-3.276l9.26-1.751a3.333 3.333 0 002.657-2.656l1.751-9.261zM33.325 3.333v6.664M36.657 6.665h-6.665M6.665 36.657a3.332 3.332 0 100-6.665 3.332 3.332 0 000 6.665z" stroke="#FB64B6" stroke-width="3.332" stroke-linecap="round" stroke-linejoin="round"/></svg>