<svg width="40" height="40" fill="none" xmlns="http://www.w3.org/2000/svg"><path d="M19.995 36.657c9.202 0 16.662-7.46 16.662-16.662 0-9.203-7.46-16.663-16.662-16.663-9.203 0-16.662 7.46-16.662 16.663 0 9.202 7.46 16.662 16.662 16.662z" stroke="#51A2FF" stroke-width="3.332" stroke-linecap="round" stroke-linejoin="round"/><path d="M19.995 29.992c5.521 0 9.997-4.476 9.997-9.997 0-5.522-4.476-9.998-9.997-9.998s-9.997 4.476-9.997 9.998c0 5.521 4.476 9.997 9.997 9.997z" stroke="#51A2FF" stroke-width="3.332" stroke-linecap="round" stroke-linejoin="round"/><path d="M19.995 23.327a3.332 3.332 0 100-6.665 3.332 3.332 0 000 6.665z" stroke="#51A2FF" stroke-width="3.332" stroke-linecap="round" stroke-linejoin="round"/></svg>