<svg width="64" height="64" fill="none" xmlns="http://www.w3.org/2000/svg"><path d="M0 31.995C0 14.325 14.325 0 31.995 0S63.99 14.325 63.99 31.995 49.666 63.99 31.995 63.99C14.325 63.99 0 49.666 0 31.995z" fill="url(#a)"/><path d="M37.327 43.991v-2.666a5.331 5.331 0 00-5.332-5.331h-7.997a5.331 5.331 0 00-5.332 5.331v2.666M37.327 20.17a5.331 5.331 0 010 10.322M45.324 43.991v-2.666a5.332 5.332 0 00-3.998-5.158M27.997 30.662a5.332 5.332 0 100-10.663 5.332 5.332 0 000 10.663z" stroke="#fff" stroke-width="2.666" stroke-linecap="round" stroke-linejoin="round"/><defs><linearGradient id="a" x1="0" y1="0" x2="63.99" y2="63.99" gradientUnits="userSpaceOnUse"><stop stop-color="#9810FA"/><stop offset="1" stop-color="#C27AFF"/></linearGradient></defs></svg>