<svg width="28" height="28" fill="none" xmlns="http://www.w3.org/2000/svg"><path d="M22.09 19.764h2.325c.698 0 1.163-.465 1.163-1.162v-3.488c0-1.046-.814-1.977-1.744-2.21-2.093-.58-5.232-1.278-5.232-1.278s-1.512-1.628-2.558-2.674c-.581-.465-1.279-.814-2.093-.814H5.813c-.697 0-1.279.465-1.628 1.047l-1.627 3.371c-.154.45-.233.92-.233 1.395v4.65c0 .698.465 1.163 1.163 1.163h2.325" stroke="#C27AFF" stroke-width="2.325" stroke-linecap="round" stroke-linejoin="round"/><path d="M8.138 22.09a2.325 2.325 0 100-4.65 2.325 2.325 0 000 4.65zM10.463 19.765h6.976M19.765 22.09a2.325 2.325 0 100-4.65 2.325 2.325 0 000 4.65z" stroke="#C27AFF" stroke-width="2.325" stroke-linecap="round" stroke-linejoin="round"/></svg>